<svg xmlns="http://www.w3.org/2000/svg" viewBox="0 0 512 408"><defs><style>.cls-1{fill:#fff;}</style></defs><g id="Layer_2" data-name="Layer 2"><g id="Layer_1-2" data-name="Layer 1"><path class="cls-1" d="M251.08,187.79H212.41V123h45.91c25,0,39.13,11.13,39.13,31.28C297.45,175.76,281,187.79,251.08,187.79Z"/><path class="cls-1" d="M307.62,249c0,23.46-16.48,35.94-47.6,35.94H212.41V213.51H258C290.67,213.51,307.62,225.54,307.62,249Z"/><path class="cls-1" d="M464.52,142.63c-8.69-28.14-9.89-62.66-9-89.31C456.52,25.58,434.91,0,405.7,0H106.34C77.13,0,55.51,25.58,56.48,53.32c.93,26.65-.28,61.17-9,89.31S24.07,188.71,0,191v26c24.07,2.29,38.8,20.14,47.52,48.37s9.89,62.66,9,89.31c-1,27.74,20.65,53.32,49.86,53.32H405.7c29.21,0,50.82-25.58,49.86-53.32-.93-26.65.27-61.17,9-89.31S487.93,219.29,512,217V191C487.93,188.71,473.23,170.86,464.52,142.63ZM267.1,312.46H177.9v-217h88.74c39.44,0,65.32,21.35,65.32,54.14,0,23-17.41,43.61-39.59,47.21V198c30.2,3.31,50.53,24.21,50.53,53.08C342.9,289.3,314.4,312.46,267.1,312.46Z"/></g></g></svg>