<svg xmlns="http://www.w3.org/2000/svg" viewBox="0 0 131.03 94.43"><defs><style>.cls-1{fill:#fff;}</style></defs><g id="Layer_2" data-name="Layer 2"><g id="Layer_2-2" data-name="Layer 2"><rect class="cls-1" x="11.32" y="29.46" width="13.67" height="12.43" rx="1.44"/><rect class="cls-1" x="27.38" y="29.46" width="13.67" height="12.43" rx="1.44"/><rect class="cls-1" x="43.43" y="29.46" width="13.67" height="12.43" rx="1.44"/><rect class="cls-1" x="59.49" y="29.46" width="13.67" height="12.43" rx="1.44"/><rect class="cls-1" x="27.38" y="14.73" width="13.67" height="12.43" rx="1.44"/><rect class="cls-1" x="43.43" y="14.73" width="13.67" height="12.43" rx="1.44"/><rect class="cls-1" x="59.49" y="14.73" width="13.67" height="12.43" rx="1.44"/><rect class="cls-1" x="59.49" width="13.67" height="12.43" rx="1.44"/><rect class="cls-1" x="75.54" y="29.46" width="13.67" height="12.43" rx="1.44"/><path class="cls-1" d="M99.94,41.89s-1.46,1.45-7.17,2.19a6.37,6.37,0,0,1-1,.06h-86A5.82,5.82,0,0,0,0,50.59c-1.31,64.69,97,52.25,110.84-1.27,0,0,14.53,3,20.16-12.82,0,0-2.26-5.19-17.45-3.53a19.58,19.58,0,0,0-11.27-14.8S92.59,29.88,99.94,41.89Z"/><path class="cls-1" d="M84.88,89.25V90h-.22V88.16h.51a.8.8,0,0,1,.51.13.48.48,0,0,1,.16.4.5.5,0,0,1-.37.5L86,90h-.25l-.45-.77Zm0-.19h.3a.5.5,0,0,0,.33-.09.39.39,0,0,0,0-.54.62.62,0,0,0-.35-.08h-.28Z"/><path class="cls-1" d="M85.19,90.87A1.82,1.82,0,1,1,87,89.05,1.83,1.83,0,0,1,85.19,90.87Zm0-3.43a1.61,1.61,0,1,0,1.6,1.61A1.61,1.61,0,0,0,85.19,87.44Z"/></g></g></svg>