<svg xmlns="http://www.w3.org/2000/svg" xmlns:xlink="http://www.w3.org/1999/xlink" viewBox="0 0 243.08 109.7"><defs><style>.cls-1{fill:#bc6040;}.cls-2{fill:url(#linear-gradient);}.cls-3{fill:#fff;}</style><linearGradient id="linear-gradient" x1="77.2" y1="12.64" x2="182.75" y2="57.43" gradientUnits="userSpaceOnUse"><stop offset="0" stop-color="#bf4513"/><stop offset="0.52" stop-color="#974424"/><stop offset="1" stop-color="#754332"/></linearGradient></defs><g id="Layer_2" data-name="Layer 2"><g id="Layer_4" data-name="Layer 4"><path class="cls-1" d="M6.07,81.42h4v21c0,4.48-2.21,7.25-6.86,7.25A8.84,8.84,0,0,1,0,109.08l.43-3.36a7.85,7.85,0,0,0,2.54.41c2.15,0,3.1-1.21,3.1-3.91Zm-.48-6.6a2.39,2.39,0,0,1,2.5-2.5,2.5,2.5,0,1,1,0,5A2.39,2.39,0,0,1,5.59,74.82Z"/><path class="cls-1" d="M25.24,81a10.25,10.25,0,1,1,0,20.49,10.25,10.25,0,1,1,0-20.49Zm0,16.68a6.44,6.44,0,0,0,0-12.87,6.44,6.44,0,0,0,0,12.87Z"/><path class="cls-1" d="M44.44,84.1A5.46,5.46,0,0,1,49.56,81a7.73,7.73,0,0,1,2.71.49l-.43,3.73a6.59,6.59,0,0,0-2.4-.45c-2.17,0-5,1.15-5,5.59v10.72H40.36V81.42h4.08Z"/><path class="cls-1" d="M73,81.42h4.47l-9.43,22.17c-1.58,3.65-3.28,6.11-8.07,6.11a7.09,7.09,0,0,1-3.26-.72l.43-3.36a7.17,7.17,0,0,0,2.64.51c2.65,0,3.71-1.33,4.59-3.62l.43-1.13-8.48-20H60.8l6.12,15.49Z"/><path class="cls-1" d="M95.2,84.1A5.46,5.46,0,0,1,100.32,81a7.73,7.73,0,0,1,2.71.49l-.43,3.73a6.59,6.59,0,0,0-2.4-.45c-2.17,0-5,1.15-5,5.59v10.72H91.12V81.42H95.2Z"/><path class="cls-1" d="M107.59,74.82a2.51,2.51,0,1,1,2.5,2.5A2.39,2.39,0,0,1,107.59,74.82Zm.47,26.27V81.42h4.06v19.67Z"/><path class="cls-1" d="M128,81a13.79,13.79,0,0,1,5.9,1.31L133.43,86A13,13,0,0,0,128,84.78c-4.21,0-7.09,2.62-7.09,6.37s2.88,6.58,7.13,6.58a14,14,0,0,0,5.51-1.21l.61,3.69A16.6,16.6,0,0,1,128,101.5c-6.64,0-11.19-4.2-11.19-10.35S121.34,81,128,81Z"/><path class="cls-1" d="M156.76,89.15v11.94h-4V90c0-3.26-1.79-5.15-4.74-5.15s-5.43,1.89-5.43,5.15v11.08h-4.06V72.24h4.08V83.9A7,7,0,0,1,148.61,81C153.92,81,156.76,84.37,156.76,89.15Z"/><path class="cls-1" d="M161.25,91.15c0-6,4.28-10.14,9.87-10.14a8.34,8.34,0,0,1,7,3.09V81.42h4.06v19.67h-4.06V98.41a8.34,8.34,0,0,1-7,3.09C165.53,101.5,161.25,97.2,161.25,91.15Zm10.36-6.49a6.19,6.19,0,0,0-6.31,6.49c0,3.63,2.52,6.7,6.31,6.7a6.51,6.51,0,0,0,6.5-6.7A6.36,6.36,0,0,0,171.61,84.66Z"/><path class="cls-1" d="M192.29,84.1A5.45,5.45,0,0,1,197.41,81a7.63,7.63,0,0,1,2.7.49l-.43,3.73a6.46,6.46,0,0,0-2.39-.45c-2.18,0-5,1.15-5,5.59v10.72h-4.08V81.42h4.08Z"/><path class="cls-1" d="M201.65,91.15c0-6,4.28-10.14,9.87-10.14a8.34,8.34,0,0,1,7,3.09V72.24h4.06v28.85h-4.06V98.41a8.34,8.34,0,0,1-7,3.09C205.93,101.5,201.65,97.2,201.65,91.15ZM212,84.66a6.19,6.19,0,0,0-6.31,6.49c0,3.63,2.52,6.7,6.31,6.7a6.51,6.51,0,0,0,6.5-6.7A6.36,6.36,0,0,0,212,84.66Z"/><path class="cls-1" d="M237,89.7c4,.82,6.13,2.5,6.13,5.92,0,4-3.24,5.88-8,5.88a16.85,16.85,0,0,1-7.48-1.47l.49-3.51a17.69,17.69,0,0,0,6.73,1.42c2.95,0,4.32-.74,4.32-2.26,0-1.33-1.07-2.05-3.61-2.56l-2.91-.59c-3.46-.7-5.3-2.69-5.3-5.72,0-3.34,3.27-5.8,8.19-5.8a17.88,17.88,0,0,1,6.62,1.19l-.43,3.52a16.33,16.33,0,0,0-6-1.14c-3,0-4.45.84-4.45,2.29,0,1.23.92,1.85,3.4,2.36Z"/><path class="cls-2" d="M143.57,63.55H75.44v-38A25.6,25.6,0,0,1,101,0h68.13V38A25.61,25.61,0,0,1,143.57,63.55Z"/><path class="cls-3" d="M118.55,9.56V40.34c0,6.14-2.75,10-6.77,12.1a18.92,18.92,0,0,1-8.83,2A32,32,0,0,1,91,52.07l.84-6.16a30.11,30.11,0,0,0,10.86,2.3c4.67,0,9-2.06,9-8V15.75H90.82a16.51,16.51,0,0,1,9.23-6.19Z"/><path class="cls-3" d="M138.69,38.83c5.35-2.09,9.23-7,9.23-14,0-10.48-7.07-15.27-15.3-15.27h-9.88v6.15h8.63c5.23,0,9.48,3.06,9.48,9.19,0,5.54-4.25,8.93-9.48,8.93h-8.63v6.1h8.89L142.49,54.5h1.08a16.46,16.46,0,0,0,6.25-1.22Z"/></g></g></svg>