<svg xmlns="http://www.w3.org/2000/svg" viewBox="0 0 67.18 94.83"><defs><style>.cls-1{fill:none;}.cls-2{fill:#fff;}.cls-3{isolation:isolate;opacity:0.8;}</style></defs><g id="Layer_2" data-name="Layer 2"><g id="Layer_2-2" data-name="Layer 2"><polygon class="cls-1" points="50.8 75.5 50.93 74.08 52.91 51.94 53.11 49.68 54.63 32.65 33.59 32.65 12.5 32.65 13.27 41.06 33.59 41.06 45.41 41.06 44.65 49.68 33.59 49.68 14.02 49.68 14.77 58.09 33.59 58.09 43.92 58.09 42.94 69 33.59 71.52 33.59 71.52 33.56 71.53 33.55 71.53 24.19 69 23.59 62.29 15.15 62.29 16.32 75.5 33.55 80.28 33.59 80.27 33.59 80.27 50.8 75.5"/><path class="cls-2" d="M0,18.64,6.11,87.21l27.44,7.62L61.06,87.2l6.12-68.56Zm55.82,64.2L33.59,89V80.27h0L16.32,75.5,15.15,62.29h8.44l.6,6.71,9.36,2.53h0V58.09H14.77L14,49.68H33.59V41.06H13.27l-.77-8.41H33.59V24.24H61.05Z"/><g class="cls-3"><polygon class="cls-2" points="43.92 58.09 33.59 58.09 33.59 71.52 42.94 69 43.92 58.09"/><polygon class="cls-2" points="45.41 41.06 33.59 41.06 33.59 49.68 44.65 49.68 45.41 41.06"/><polygon class="cls-2" points="33.59 32.65 54.63 32.65 53.11 49.68 52.91 51.94 50.93 74.08 50.8 75.5 33.59 80.27 33.59 80.27 33.59 89 55.82 82.84 61.05 24.24 33.59 24.24 33.59 32.65"/></g><path id="path2999" class="cls-2" d="M15.81,0H26V4.26H20.07V8.52H26v4.26H15.81Z"/><path id="path3001" class="cls-2" d="M28,0H38.22V3.7H32.29v.75h5.93V13H28V9.08H34V8.33H28Z"/><path id="path3003" class="cls-2" d="M40.26,0H50.44V3.7H44.52v.75h5.92V13H40.26V9.08h5.92V8.33H40.26Z"/></g></g></svg>