<svg xmlns="http://www.w3.org/2000/svg" viewBox="0 0 510.05 181.5"><defs><style>.cls-1{opacity:0.44;}.cls-2{fill:#dbc0ba;}</style></defs><g id="Layer_2" data-name="Layer 2"><g id="Layer_5" data-name="Layer 5"><g class="cls-1"><path class="cls-2" d="M271.88,132.42l-5.41-5.91q-12.41,8-23.61,8a28.24,28.24,0,0,1-20.34-7.93,25.86,25.86,0,0,1-8.28-19.42q0-18.86,21.59-25.81-6.65-10.2-6.65-17.55a17.43,17.43,0,0,1,5.69-13.29,20.12,20.12,0,0,1,14.28-5.3q9.07,0,14.55,4.67a15.47,15.47,0,0,1,5.48,12.37q0,14.24-19.17,21.11A242,242,0,0,0,271,114.21q6-7.81,6-21.5h-8.51V87h23.28v5.68h-7.07q0,12.48-10.06,25.92l7,8.11H288v5.68ZM263,122q-11.25-13.67-24.46-35.74-12.91,5.56-12.92,17.3A22.49,22.49,0,0,0,232.27,120a22,22,0,0,0,16.28,6.73A23.93,23.93,0,0,0,263,122Zm-15.83-43.5q11.33-6.09,11.32-17.47,0-5.11-2.1-7.64c-1.41-1.69-3.51-2.53-6.32-2.53a8.84,8.84,0,0,0-6.78,3,10.54,10.54,0,0,0-2.73,7.44Q240.56,67.09,247.17,78.52Z"/></g><path d="M196,98.39v64.8h-5.93v-8a25.86,25.86,0,0,1-8.49,6.92,23.7,23.7,0,0,1-27.24-4.88,24.12,24.12,0,0,1-7-17.51,23.69,23.69,0,0,1,7.09-17.28,23.14,23.14,0,0,1,17.06-7.18,22.09,22.09,0,0,1,10.42,2.45,23.85,23.85,0,0,1,8.19,7.35V98.39ZM172,121a18.1,18.1,0,0,0-16,9.4,18.94,18.94,0,0,0,0,18.88,18.39,18.39,0,0,0,6.81,7,17.69,17.69,0,0,0,9.16,2.51,18.8,18.8,0,0,0,9.36-2.49,17.29,17.29,0,0,0,6.8-6.74,19.2,19.2,0,0,0,2.39-9.57,18.56,18.56,0,0,0-5.35-13.56A17.67,17.67,0,0,0,172,121Z"/><path d="M249,147.68l5.07,2.66a27.65,27.65,0,0,1-5.76,7.91,23,23,0,0,1-7.36,4.58,25.78,25.78,0,0,1-9.25,1.57q-11.44,0-17.89-7.5a25.31,25.31,0,0,1-6.45-17,25,25,0,0,1,5.46-15.85q6.91-8.85,18.54-8.86,12,0,19.09,9.07,5.08,6.4,5.17,16H213.52a19,19,0,0,0,5.21,13.35,16.59,16.59,0,0,0,12.44,5.21,19.92,19.92,0,0,0,6.94-1.24,18.27,18.27,0,0,0,5.75-3.29A28.23,28.23,0,0,0,249,147.68Zm0-12.59a20,20,0,0,0-3.51-7.69,16.58,16.58,0,0,0-6.09-4.65,18.68,18.68,0,0,0-8-1.76,17.15,17.15,0,0,0-11.83,4.43q-3.61,3.22-5.46,9.67Z"/><path d="M290.32,121.55l-3.87,4q-4.83-4.68-9.43-4.69a7.12,7.12,0,0,0-5,1.94,5.94,5.94,0,0,0-2.09,4.51,6.66,6.66,0,0,0,1.72,4.34q1.72,2.1,7.23,4.94,6.72,3.48,9.13,6.71a12.18,12.18,0,0,1,2.37,7.35,13.21,13.21,0,0,1-4,9.75,13.84,13.84,0,0,1-10.12,4,17.69,17.69,0,0,1-7.72-1.76,16.76,16.76,0,0,1-6.09-4.86l3.78-4.3q4.6,5.21,9.78,5.2a8.81,8.81,0,0,0,6.16-2.32,7.19,7.19,0,0,0,2.54-5.46,7,7,0,0,0-1.68-4.6q-1.68-2-7.58-5-6.33-3.27-8.62-6.45a12.15,12.15,0,0,1-2.28-7.26,11.79,11.79,0,0,1,3.64-8.85,12.67,12.67,0,0,1,9.19-3.53Q283.77,115.23,290.32,121.55Z"/><path d="M303.06,97.19a5,5,0,0,1,0,9.92,4.69,4.69,0,0,1-3.46-1.46,4.93,4.93,0,0,1,0-7A4.69,4.69,0,0,1,303.06,97.19Zm-3,19.25h6v46.75h-6Z"/><path d="M358.91,116.44h6V153.7q0,9.84-1.72,14.39A18.7,18.7,0,0,1,355,178a27,27,0,0,1-14.06,3.48,32.21,32.21,0,0,1-10.8-1.7,21.74,21.74,0,0,1-7.81-4.57,27.34,27.34,0,0,1-5.54-8.38h6.53a17.3,17.3,0,0,0,6.89,6.87A22.1,22.1,0,0,0,340.66,176a21.68,21.68,0,0,0,10.39-2.29,14,14,0,0,0,6.05-5.76q1.8-3.48,1.81-11.21v-2.4a22.85,22.85,0,0,1-8.31,6.59,24.64,24.64,0,0,1-22.54-.9,22.69,22.69,0,0,1-8.77-8.61,23.52,23.52,0,0,1-3.1-11.91,24.34,24.34,0,0,1,24.18-24.24,22.47,22.47,0,0,1,9.78,2.17,27.06,27.06,0,0,1,8.76,7.16ZM341.16,121a19,19,0,0,0-9.5,2.47,17.82,17.82,0,0,0-6.87,6.83,18.61,18.61,0,0,0-2.5,9.43,17,17,0,0,0,5.16,12.72q5.16,5,13.36,5t13.35-5q5-5,5-13.11a19,19,0,0,0-2.32-9.43,16.94,16.94,0,0,0-6.58-6.56A18.31,18.31,0,0,0,341.16,121Z"/><path d="M377.82,116.44h6v8.38a25.11,25.11,0,0,1,8-7.2,19.63,19.63,0,0,1,9.54-2.39,16.56,16.56,0,0,1,9.3,2.67,15.81,15.81,0,0,1,6,7.18q1.93,4.5,1.94,14v24.06h-6v-22.3c0-5.39-.22-9-.67-10.79a11.84,11.84,0,0,0-4-7,12.13,12.13,0,0,0-7.73-2.34,14.82,14.82,0,0,0-9.78,3.61,16.89,16.89,0,0,0-5.7,8.94q-.85,3.48-.86,12.72v17.14h-6Z"/><path d="M470.85,147.68l5.08,2.66a27.67,27.67,0,0,1-5.77,7.91,22.93,22.93,0,0,1-7.35,4.58,25.82,25.82,0,0,1-9.25,1.57q-11.44,0-17.89-7.5a25.27,25.27,0,0,1-6.46-17,25,25,0,0,1,5.46-15.85,22.35,22.35,0,0,1,18.54-8.86q12,0,19.1,9.07,5.08,6.4,5.16,16H435.4a19,19,0,0,0,5.21,13.35A16.57,16.57,0,0,0,453,158.85a19.94,19.94,0,0,0,6.95-1.24,18.22,18.22,0,0,0,5.74-3.29A28,28,0,0,0,470.85,147.68Zm0-12.59a20,20,0,0,0-3.5-7.69,16.75,16.75,0,0,0-6.09-4.65,18.74,18.74,0,0,0-8-1.76,17.15,17.15,0,0,0-11.83,4.43q-3.62,3.22-5.47,9.67Z"/><path d="M486.41,116.44h6.15v6.83a21.46,21.46,0,0,1,5.8-6,11.44,11.44,0,0,1,6.36-2,11,11,0,0,1,5.33,1.59l-3.14,5.08a8.27,8.27,0,0,0-3.18-.82,8.67,8.67,0,0,0-5.8,2.47c-1.86,1.65-3.28,4.2-4.26,7.67q-1.11,4-1.11,16.16v15.81h-6.15Z"/><path d="M48.69,0V64.81H42.76v-8a25.74,25.74,0,0,1-8.49,6.92A22.92,22.92,0,0,1,24,66,22.81,22.81,0,0,1,7,58.81,24.12,24.12,0,0,1,0,41.3,23.71,23.71,0,0,1,7.09,24a23.13,23.13,0,0,1,17.06-7.17A22,22,0,0,1,34.57,19.3a23.72,23.72,0,0,1,8.19,7.34V0Zm-24,22.65a18.15,18.15,0,0,0-16,9.4,19,19,0,0,0,0,18.89,18.43,18.43,0,0,0,6.81,7,17.7,17.7,0,0,0,9.16,2.52A18.8,18.8,0,0,0,34,58a17.42,17.42,0,0,0,6.8-6.74,19.26,19.26,0,0,0,2.39-9.58A18.62,18.62,0,0,0,37.8,28.1,17.71,17.71,0,0,0,24.65,22.65Z"/><path d="M101.68,49.29,106.75,52a27.75,27.75,0,0,1-5.77,7.9,22.75,22.75,0,0,1-7.35,4.58A25.6,25.6,0,0,1,84.38,66q-11.44,0-17.89-7.5A25.3,25.3,0,0,1,60,41.56,25,25,0,0,1,65.5,25.7Q72.41,16.85,84,16.85q12,0,19.09,9.06,5.09,6.4,5.16,16H66.22a19.07,19.07,0,0,0,5.21,13.36,16.62,16.62,0,0,0,12.43,5.21,20,20,0,0,0,7-1.25,18.19,18.19,0,0,0,5.75-3.29A28.28,28.28,0,0,0,101.68,49.29Zm0-12.59A20,20,0,0,0,98.17,29a16.54,16.54,0,0,0-6.09-4.64,18.57,18.57,0,0,0-8-1.77A17.15,17.15,0,0,0,72.29,27q-3.62,3.22-5.46,9.67Z"/><path d="M115.08,18.05h6.41l15.69,34.08,15.51-34.08h6.44l-21.4,46.76h-1.11Z"/><path d="M207.65,49.29,212.72,52a27.55,27.55,0,0,1-5.76,7.9,22.69,22.69,0,0,1-7.36,4.58A25.51,25.51,0,0,1,190.36,66q-11.45,0-17.9-7.5A25.3,25.3,0,0,1,166,41.56a25,25,0,0,1,5.46-15.86q6.93-8.85,18.54-8.85,12,0,19.1,9.06,5.07,6.4,5.16,16H172.2a19.06,19.06,0,0,0,5.2,13.36,16.64,16.64,0,0,0,12.44,5.21,20,20,0,0,0,6.95-1.25,18.14,18.14,0,0,0,5.74-3.29A27.76,27.76,0,0,0,207.65,49.29Zm0-12.59a20,20,0,0,0-3.5-7.69,16.62,16.62,0,0,0-6.09-4.64,18.6,18.6,0,0,0-8-1.77A17.17,17.17,0,0,0,178.26,27q-3.62,3.22-5.46,9.67Z"/><path d="M224.58,0h6V64.81h-6Z"/><path d="M265.24,16.85a23.15,23.15,0,0,1,17.91,7.82,24.33,24.33,0,0,1,6.45,16.89,24.31,24.31,0,0,1-6.82,17.12Q276,66,265.24,66t-17.59-7.33a24.31,24.31,0,0,1-6.82-17.12,24.26,24.26,0,0,1,6.46-16.85A23.14,23.14,0,0,1,265.24,16.85Zm0,5.88a17.36,17.36,0,0,0-12.9,5.55,18.53,18.53,0,0,0-5.39,13.41,19,19,0,0,0,2.46,9.45A17.43,17.43,0,0,0,256,57.91a18.91,18.91,0,0,0,18.37,0A17.36,17.36,0,0,0,281,51.14a19,19,0,0,0,2.46-9.45,18.47,18.47,0,0,0-5.41-13.41A17.37,17.37,0,0,0,265.22,22.73Z"/><path d="M300.82,18.05h6v8.59A24.11,24.11,0,0,1,315,19.3a21.71,21.71,0,0,1,10.34-2.45A23.11,23.11,0,0,1,342.43,24a23.74,23.74,0,0,1,7.08,17.28,24.15,24.15,0,0,1-7,17.51,23.64,23.64,0,0,1-27.2,4.88,25.81,25.81,0,0,1-8.45-6.92V81.91h-6Zm24.07,4.6a17.66,17.66,0,0,0-13.14,5.45,18.61,18.61,0,0,0-5.34,13.56,19.26,19.26,0,0,0,2.38,9.58A17.38,17.38,0,0,0,315.6,58,18.89,18.89,0,0,0,325,60.47,17.61,17.61,0,0,0,334.08,58a18.41,18.41,0,0,0,6.8-7,19,19,0,0,0,0-18.89,18.12,18.12,0,0,0-16-9.4Z"/><path d="M400.13,49.29,405.21,52a27.75,27.75,0,0,1-5.77,7.9,22.75,22.75,0,0,1-7.35,4.58A25.6,25.6,0,0,1,382.84,66Q371.4,66,365,58.51a25.26,25.26,0,0,1-6.46-16.95A25,25,0,0,1,364,25.7q6.92-8.85,18.53-8.85,12,0,19.1,9.06,5.09,6.4,5.16,16H364.68a19,19,0,0,0,5.21,13.36,16.6,16.6,0,0,0,12.43,5.21,20,20,0,0,0,6.95-1.25A18,18,0,0,0,395,55.93,27.76,27.76,0,0,0,400.13,49.29Zm0-12.59a20,20,0,0,0-3.5-7.69,16.62,16.62,0,0,0-6.09-4.64,18.6,18.6,0,0,0-8-1.77A17.15,17.15,0,0,0,370.75,27q-3.62,3.22-5.47,9.67Z"/><path d="M415.69,18.05h6.15v6.83a21.6,21.6,0,0,1,5.8-6,11.43,11.43,0,0,1,6.36-2,11,11,0,0,1,5.33,1.59l-3.14,5.07a8.27,8.27,0,0,0-3.18-.82,8.67,8.67,0,0,0-5.8,2.47q-2.79,2.47-4.25,7.67-1.12,4-1.12,16.16V64.81h-6.15Z"/></g></g></svg>