<svg xmlns="http://www.w3.org/2000/svg" viewBox="0 0 67.32 94.83"><defs><style>.cls-1,.cls-2{fill:#fff;}.cls-2{isolation:isolate;opacity:0.8;}.cls-3{opacity:0.2;}</style></defs><g id="Layer_2" data-name="Layer 2"><g id="Layer_2-2" data-name="Layer 2"><path class="cls-1" d="M6.18,0h4.28V4.23h3.92V0h4.29V12.82H14.38V8.53H10.46v4.29H6.18Z"/><path class="cls-1" d="M24.3,4.25H20.53V0H32.36V4.25H28.59v8.57H24.3V4.25Z"/><path class="cls-1" d="M34.24,0h4.47l2.74,4.5L44.2,0h4.47V12.82H44.4V6.47L41.45,11h-.07l-3-4.55v6.35H34.24Z"/><path class="cls-1" d="M50.8,0h4.29V8.58h6v4.24H50.8Z"/><path class="cls-1" d="M22.53,49.56H33.66V40.93H21.76ZM0,18.44,6.13,87.19l27.51,7.64,27.54-7.64,6.14-68.75ZM55.93,82.82,33.66,89V80.24h0L16.37,75.45l-1.2-13.54h8.46l.63,7,9.39,2.54h0V58H14.82L12.54,32.5H33.66V24.06H61.17Z"/><path class="cls-2" d="M44,58H33.66V71.47l9.4-2.54ZM33.66,24.06V32.5H54.78L54,40.93H33.66v8.63H53.25L50.94,75.45,33.66,80.24V89l22.27-6.17,5.24-58.76Z"/><g class="cls-3"><polygon class="cls-1" points="33.66 32.49 12.54 32.49 14.81 57.99 33.66 57.99 33.66 49.56 22.53 49.56 21.76 40.93 33.66 40.93 33.66 32.49"/><polygon class="cls-1" points="33.66 71.47 33.65 71.47 24.26 68.94 23.63 61.91 15.16 61.91 16.37 75.45 33.65 80.24 33.66 80.24 33.66 71.47"/></g></g></g></svg>