<svg xmlns="http://www.w3.org/2000/svg" viewBox="0 0 99.84 94.78"><defs><style>.cls-1{fill:#fff;}</style></defs><g id="Layer_2" data-name="Layer 2"><g id="Layer_2-2" data-name="Layer 2"><path class="cls-1" d="M69.18,66.2A7.14,7.14,0,0,0,68.42,52h-.26a7.11,7.11,0,0,0-6.86,7.36,7.31,7.31,0,0,0,2,4.71C59,72.55,52.41,78.77,42.5,84a34.33,34.33,0,0,1-20.71,3.94c-5.72-.76-10.16-3.3-13-7.49a18.67,18.67,0,0,1-1-19.7,30,30,0,0,1,8.64-10.16c-.51-1.65-1.27-4.45-1.65-6.48C-3.62,57.43-1.72,75.47,3.87,84,8.07,90.34,16.58,94.27,26,94.27a31.59,31.59,0,0,0,7.63-.88C49.87,90.21,62.19,80.55,69.18,66.2Z"/><path class="cls-1" d="M91.54,50.44C81.89,39.13,67.66,32.91,51.39,32.91h-2a7,7,0,0,0-6.23-3.81h-.25a7.12,7.12,0,0,0,.25,14.23h.26A7.16,7.16,0,0,0,49.61,39H51.9A48.41,48.41,0,0,1,79,47.26,34,34,0,0,1,92.43,63.53c2.16,5.33,2,10.54-.25,15A18.67,18.67,0,0,1,74.77,88.94a32.55,32.55,0,0,1-12.45-2.67c-1.4,1.27-3.94,3.3-5.72,4.57A39.13,39.13,0,0,0,73,94.78c12.2,0,21.22-6.73,24.65-13.46C101.33,74,101.07,61.24,91.54,50.44Z"/><path class="cls-1" d="M27,68.36a7.14,7.14,0,0,0,7.11,6.86h.26A7.12,7.12,0,0,0,34.11,61h-.25a2.28,2.28,0,0,0-.89.12,46.56,46.56,0,0,1-6.61-28.2,34.1,34.1,0,0,1,7.5-19.7c3.68-4.7,10.8-7,15.63-7.11C63,5.84,68.67,22.62,69.05,29.35c1.66.38,4.45,1.27,6.36,1.91C73.88,10.67,61.18,0,49,0,37.54,0,27,8.26,22.81,20.46c-5.85,16.26-2,31.89,5.08,44.21A5.67,5.67,0,0,0,27,68.36Z"/></g></g></svg>